<svg width="32" height="32" viewBox="0 0 32 32" fill="none" xmlns="http://www.w3.org/2000/svg">
<path d="M19.7843 11.9235H19.392C17.881 12.0014 16.6956 12.4049 15.9443 13.2369C15.1819 12.4021 13.9965 11.9958 12.4772 11.9235H12.1016C8.73182 12.1517 7.19581 14.567 4.50503 15.5937C4.08691 15.7843 3.6316 15.8794 3.17216 15.872C2.48207 15.7969 2.04242 15.0984 2.13147 14.3193C2.22608 13.4845 3.04416 12.7583 3.95686 13.159C4.07689 13.2147 4.1869 13.2899 4.28242 13.3816C4.35199 13.4456 4.4299 13.6125 4.60799 13.5513C4.77494 13.4122 4.60799 13.209 4.52173 13.0922C4.35696 12.7992 4.10757 12.5627 3.80621 12.4138C3.50484 12.2648 3.16553 12.2103 2.83268 12.2574C1.26607 12.3687 -0.136362 13.7433 0.102943 15.8247C0.637203 18.9217 3.4699 19.7565 6.82851 20.0348H7.92208C10.8532 19.9159 13.6649 18.8409 15.9276 16.9739C18.2083 18.8342 21.029 19.9078 23.9694 20.0348H25.0435C28.4271 19.737 31.2876 18.9217 31.7857 15.7329C31.9749 13.4623 30.6226 12.3464 29.0532 12.2323C28.7177 12.1854 28.3757 12.2398 28.0713 12.3885C27.7669 12.5373 27.5139 12.7736 27.3447 13.0671C27.2668 13.1951 27.1221 13.3927 27.2584 13.5457C27.4282 13.5763 27.5116 13.4428 27.584 13.376C27.6857 13.27 27.8074 13.1852 27.9421 13.1264C28.0768 13.0677 28.2218 13.0362 28.3687 13.0337C29.4428 12.9948 30.0605 14.1885 29.632 15.1513C29.5482 15.3383 29.4181 15.5008 29.254 15.6235C29.0899 15.7462 28.8973 15.825 28.6942 15.8525C28.2353 15.8548 27.7811 15.76 27.3614 15.5743C26.9872 15.4309 26.6268 15.254 26.2845 15.0456C24.2393 13.8602 22.6393 12.1767 19.7843 11.9235Z" fill="white"/>
</svg>
