<svg width="371" height="155" fill="#fff" xmlns="http://www.w3.org/2000/svg"><path d="M120.366 11.58c7.17-2.462 7.763-11.58.653-11.58-2.009 0-4.298 1.388-5.905 4.225L105.443 21a13.067 13.067 0 0 1-1.375 2.026c-2.471-3.434-1.748-8.56 1.717-10.81l-1.346-1.813c-7.491 4.812-5.292 18.722 7.21 18.722 10.645-.01 15.586-12.917 8.717-17.547Zm-8.827 14.76a10.212 10.212 0 0 1-5.152-1.246 17.97 17.97 0 0 0 1.788-2.563l6.025-10.506 1.004.101c8.315 1.773 4.991 14.214-3.665 14.214Zm3.846-16.422 2.882-4.994c2.611-4.539 5.945-1.875 4.158 1.52-1.376 2.603-3.405 3.403-7.04 3.474Z"/><path d="m260.305 19.248-.241.274a16.73 16.73 0 0 1-6.528 5.065c.583-.932 1.004-1.945 1.476-2.705l3.947-6.828c3.334-5.713-2.059-7.628-5.704-4.336l.723-1.246h-3.575l-5.584 9.776-.241.274a7.667 7.667 0 0 1-2.426 1.887 7.615 7.615 0 0 1-2.966.777l3.364-5.855c2.169-3.779.171-7.345-3.194-7.345-2.751 0-4.88 1.104-6.939 4.71l-1.757 3.04-1.466 2.512-.191.223c-2.581 3.04-5.081 5.41-6.668 5.41-.793 0-1.235-.557-.412-2.026l5.152-9.118c1.546-2.735.07-4.71-1.928-4.71-1.547 0-3.194.86-5.021 2.735l5.704-10.02h-3.575l-9.912 17.506-.201.233a22.165 22.165 0 0 1-4.268 3.921c1.135-3.434.894-8.702 3.093-13.312l-2.681-1.459c-1.476 2.027-4.71 6.758-7.934 10.567l-.241.273c-2.58 3.04-5.081 5.41-6.668 5.41-.793 0-1.235-.557-.411-2.026l3.575-6.311c1.235-2.189.652-3.465-.512-4.883l-2.009-2.422a1.428 1.428 0 0 1 .06-2.026l.111-.091-1.858-2.026c-2.008 1.833-2.199 3.88-.924 5.541l.301.416c-1.576 2.249-3.705 5.298-6.025 8.104l-.241.274c-2.581 3.039-5.875 5.41-8.385 5.41-2.199 0-3.505-1.388-1.858-4.296l.341-.628c2.3 1.013 6.628.517 9.31-4.154l.512-.901c1.928-3.323.07-5.825-2.852-5.825-1.38.01-2.73.4-3.906 1.128a7.604 7.604 0 0 0-2.762 3.005l-3.485 6.078-.211.243a7.607 7.607 0 0 1-2.424 1.893 7.554 7.554 0 0 1-2.969.772l3.365-5.856a8.718 8.718 0 0 0 1.345-4.143 3.065 3.065 0 0 0-.749-2.2 3.012 3.012 0 0 0-2.073-1.022h-.421a4.172 4.172 0 0 0-2.34.8l4.539-7.932h-3.645l-10.003 17.445-.19.213c-2.581 3.04-5.082 5.41-6.668 5.41-.794 0-1.236-.557-.412-2.026l3.575-6.312c1.235-2.188.653-3.464-.512-4.883l-2.009-2.42a1.41 1.41 0 0 1-.391-1.029 1.414 1.414 0 0 1 .462-.998l.14-.112-1.858-2.026c-2.008 1.834-2.199 3.88-.923 5.542l.311.415c-1.577 2.25-3.716 5.299-6.025 8.105l-.242.273c-2.58 3.04-5.081 5.41-6.668 5.41-.793 0-1.235-.557-.411-2.026l5.774-10.191h-2.008a3.752 3.752 0 0 0-1.2-2.5 3.684 3.684 0 0 0-2.576-.975c-1.928 0-4.6 1.53-6.116 4.163l-5.021 8.733c-1.517 2.675-.442 5.126 2.44 5.126 1.446 0 3.234-.932 4.951-2.36.171 1.388 1.275 2.36 3.093 2.36 2.952 0 6.357-3.191 9.309-6.656 1.717-2.026 3.013-3.809 5.905-7.73l.482.588a1.77 1.77 0 0 1 .211 2.026l-3.776 6.616c-1.506 2.674-.442 5.126 2.44 5.126 2.069 0 4.359-1.57 6.568-3.698 0 2.462 1.817 3.85 4.127 3.85a7.851 7.851 0 0 0 3.392-.976 7.911 7.911 0 0 0 2.633-2.367c.265.02.53.02.794 0a10.3 10.3 0 0 0 4.74-1.419c-.191 2.604 1.687 4.58 4.84 4.58 4.017 0 8.034-3.192 11.047-6.656 1.717-2.027 3.012-3.81 5.904-7.73l.482.587a1.774 1.774 0 0 1 .211 2.026l-3.776 6.616c-1.516 2.674-.441 5.126 2.441 5.126 2.882 0 6.356-3.191 9.309-6.656 2.008-2.36 3.816-4.883 5.081-6.585-1.406 3.748-.653 10.465-4.017 10.465a1.998 1.998 0 0 1-1.031-.414 2.027 2.027 0 0 1-.656-.903l-2.179 1.175c.229.861.742 1.618 1.454 2.146.711.528 1.58.797 2.463.762.341 0 .672 0 1.004-.071h.1a12.588 12.588 0 0 0 5.493-2.39l-1.225 2.147h3.605l5.423-9.533c5.503-6.97 7.933-6.079 6.387-3.394l-4.64 8.105c-1.516 2.664-.441 5.126 2.441 5.126 2.078 0 4.368-1.58 6.577-3.718 0 4.6 6.317 5.49 10.193.557h.794a9.657 9.657 0 0 0 3.826-.952l-6.508 11.387h3.605l10.685-18.752c4.017-5.481 6.498-3.465 5.564-1.834l-5.393 9.432a1.381 1.381 0 0 1-1.29.906c-.282 0-.556-.087-.787-.249a1.394 1.394 0 0 1-.504-.657l-2.008 1.013c.229.86.742 1.617 1.453 2.146.712.528 1.58.796 2.463.761h.211c5.192-.101 8.586-3.221 11.509-6.656a2.249 2.249 0 0 0-1.426-1.165Zm-81.343-5.065c2.009-3.566 5.704-2.978 3.576.76l-.513.901c-1.717 2.949-4.017 2.878-5.362 2.391l2.299-4.052Zm-45.802 5.683c-2.169 3.435-4.298 5.066-5.774 5.066-.794 0-1.236-.557-.412-2.026l5.021-8.774c1.928-3.363 5.734-2.492 4.017.76l-2.852 4.974Zm26.903 4.924a1.319 1.319 0 0 1-.945-.327 1.34 1.34 0 0 1-.451-.899.878.878 0 0 1 0-.162 4.15 4.15 0 0 1 .623-1.874l1.205-2.28a5.35 5.35 0 0 0 .735 2.116 5.304 5.304 0 0 0 1.534 1.623c-.268.5-.658.923-1.131 1.231a3.337 3.337 0 0 1-1.58.531l.01.04Zm3.726-3.515a3.88 3.88 0 0 1-1.155-1.444 3.93 3.93 0 0 1-.362-1.819c0-2.563 2.471-6.757 4.499-6.757a1.355 1.355 0 0 1 .97.407 1.393 1.393 0 0 1 .396.981.991.991 0 0 1 0 .172 4.326 4.326 0 0 1-.683 2.148l-3.665 6.312Zm73.388-1.804h-.18a2.11 2.11 0 0 0-1.486.633c-.393.4-.613.941-.613 1.505.006.428.124.847.341 1.215v.071c-1.687 2.908-5.774 2.36-3.645-1.387l4.398-7.71c2.511-4.295 5.945-2.604 3.776 1.145l-2.591 4.528ZM0 74.218l5.734-5.795 5.744 5.795-5.744 5.815L0 74.218Zm353.486 0 5.744-5.785 5.735 5.795-5.714 5.805-5.765-5.815Z"/><path d="M46.998 74.44h2.089v-8.428h3.283v-2.117h-5.372V74.44Zm14.953 1.54V63.135a4.65 4.65 0 0 0-.703-2.431 4.593 4.593 0 0 0-1.868-1.693 4.46 4.46 0 0 1 .482 2.027v12.845c.01.677-.13 1.348-.41 1.963a4.536 4.536 0 0 1-1.207 1.593 5.306 5.306 0 0 1 1.667 3.738v14.285a4.7 4.7 0 0 1-1.394 3.284 4.617 4.617 0 0 1-3.286 1.335H41.665v2.108h15.706a4.62 4.62 0 0 0 3.221-1.371 4.7 4.7 0 0 0 1.359-3.249V83.285a5.297 5.297 0 0 0-.472-2.044 5.254 5.254 0 0 0-1.226-1.695 4.48 4.48 0 0 0 1.26-1.584 4.522 4.522 0 0 0 .438-1.982Z" fill="#636466"/><path d="M46.998 92.534h2.088v-8.449h3.284v-2.158h-5.372v10.607Zm33.139 0h2.089V66.012h3.284v-2.117h-5.363l-.01 28.64Z" fill="#636466"/><path d="M92.529 59.011c.318.627.484 1.322.482 2.026v34.445a4.702 4.702 0 0 1-1.358 3.25 4.622 4.622 0 0 1-3.221 1.37H77.325a4.494 4.494 0 0 1-2.008-.487 4.61 4.61 0 0 0 1.677 1.885 4.558 4.558 0 0 0 2.41.709H90.53a4.62 4.62 0 0 0 3.22-1.371 4.7 4.7 0 0 0 1.359-3.249V63.145a4.638 4.638 0 0 0-.703-2.44 4.583 4.583 0 0 0-1.878-1.694Zm20.767 15.43h2.089v-8.43h3.294v-2.117h-5.383V74.44Zm12.302 9.117a4.492 4.492 0 0 0 1.898-1.672c.461-.729.705-1.576.703-2.441v-16.31a4.633 4.633 0 0 0-.698-2.452 4.579 4.579 0 0 0-1.883-1.702c.314.629.479 1.322.482 2.026v16.361a4.534 4.534 0 0 1-.69 2.444 4.483 4.483 0 0 1-1.891 1.68l3.093 18.589h-5.704l.352 2.107h7.421l-3.083-18.63Zm-9.46-1.672h-2.842v18.195h-5.332v2.118h7.421V84.085h1.105l-.352-2.198Zm29.314 10.607h2.098V66.012h3.284v-2.118h-5.382v28.6Z" fill="#636466"/><path d="M157.844 59.011c.319.627.484 1.322.482 2.027v34.444a4.7 4.7 0 0 1-1.359 3.25 4.62 4.62 0 0 1-3.221 1.37H142.6a4.495 4.495 0 0 1-2.009-.487 4.61 4.61 0 0 0 1.677 1.885 4.55 4.55 0 0 0 2.41.709h11.137a4.622 4.622 0 0 0 3.221-1.371 4.698 4.698 0 0 0 1.358-3.249V63.145c0-.86-.239-1.704-.69-2.434a4.585 4.585 0 0 0-1.86-1.7Zm20.757 33.523h2.099V66.012h3.284v-2.117h-5.383v28.639Z" fill="#636466"/><path d="M190.993 59.011c.318.627.483 1.322.482 2.027v34.444a4.704 4.704 0 0 1-1.358 3.25 4.624 4.624 0 0 1-3.221 1.37h-13.617v2.107h15.706a4.62 4.62 0 0 0 3.22-1.371 4.7 4.7 0 0 0 1.359-3.249V63.145a4.658 4.658 0 0 0-.7-2.437 4.6 4.6 0 0 0-1.871-1.697Zm21.139-.486v41.536H206.8v2.117h7.421V58.525h-2.089Zm33.019 0v41.536h-5.925l.592 2.117h7.432V58.525h-2.099Zm-12.864 22.52v19.036h-5.333v2.118h7.421v-13.87l-2.088-7.283Zm32.406 3.04h6.136v-2.158h-8.225a4.482 4.482 0 0 1-2.008-.486 4.573 4.573 0 0 0 1.669 1.92 4.519 4.519 0 0 0 2.428.724Zm2.842 2.766-2.099.486v5.197h2.099v-5.683Zm10.293-27.84c.318.627.484 1.322.482 2.027v8.864l-5.392 1.256v2.594l7.481-1.753v-8.864a4.65 4.65 0 0 0-.703-2.432 4.59 4.59 0 0 0-1.868-1.692Z" fill="#636466"/><path d="M277.828 77.044c.318.627.484 1.322.482 2.026v16.412a4.7 4.7 0 0 1-1.358 3.25 4.622 4.622 0 0 1-3.221 1.37h-11.137a4.49 4.49 0 0 1-2.008-.487 4.61 4.61 0 0 0 1.677 1.885 4.55 4.55 0 0 0 2.41.709H275.8a4.62 4.62 0 0 0 3.22-1.371 4.7 4.7 0 0 0 1.359-3.249V81.167a4.635 4.635 0 0 0-.693-2.428 4.585 4.585 0 0 0-1.858-1.695Zm-12.392-13.17V74.44h2.099v-8.428h3.284v-2.118l-5.383-.02Zm33.822 18.053h-.683v18.154h-5.342v2.118h7.421V86.466l-1.396-4.539Zm15.204-23.402h-2.751l-6.257 19.664 6.93 21.892h-6.026l.583 1.864.06.254h7.481l-6.929-21.903 6.929-21.77h-.02Zm17.454 0v41.536h-5.323v2.117h7.411V58.525h-2.088Z" fill="#636466"/><path d="M168.609 125.469h1.416c5.453.284 9.731 1.753 12.442 4.782 2.752-3.04 7.03-4.519 12.513-4.782h1.356c12.161.831 17.704 9.624 27.415 13.362a11.106 11.106 0 0 0 4.81 1.013c2.491-.273 4.077-2.816 3.756-5.652-.342-3.04-3.294-5.684-6.588-4.225a4.455 4.455 0 0 0-1.175.81c-.251.233-.532.841-1.175.618-.602-.506 0-1.246.312-1.671a6.04 6.04 0 0 1 2.582-2.47 5.976 5.976 0 0 1 3.513-.569c5.654.405 10.715 5.409 9.852 12.987-1.928 11.276-12.151 14.315-24.272 15.328h-3.947a48.275 48.275 0 0 1-28.891-11.144A48.957 48.957 0 0 1 153.506 155h-3.877c-12.211-1.084-22.535-4.052-24.332-15.662-.683-8.267 4.198-12.329 9.861-12.744a6.072 6.072 0 0 1 3.546.564 6.135 6.135 0 0 1 2.62 2.475c.281.466.804 1.185.312 1.742-.613.112-.914-.375-1.175-.618a4.002 4.002 0 0 0-2.832-1.246c-3.877-.142-6.106 4.204-4.559 7.71.303.68.772 1.271 1.365 1.718a4.34 4.34 0 0 0 2.019.835 11.55 11.55 0 0 0 4.81-1.014 23.924 23.924 0 0 0 3.886-1.924c7.381-4.316 13.156-10.445 23.459-11.367Z"/><path d="m363.167 83.994 5.734-5.795L371 80.316l-5.744 5.795-2.089-2.117Zm-353.486 0 5.734-5.785 2.099 2.107-5.704 5.795-2.13-2.117Z" fill="#636466"/><path d="M55.885 69.902a4.532 4.532 0 0 1-.43 1.953 4.493 4.493 0 0 1-1.227 1.572 5.305 5.305 0 0 1 1.667 3.738V91.45a4.701 4.701 0 0 1-1.359 3.25 4.62 4.62 0 0 1-3.22 1.37H35.6V52.396h15.706a4.579 4.579 0 0 1 3.232 1.359 4.66 4.66 0 0 1 1.347 3.26v12.887Zm-7.482-10.02h-5.382V70.43h5.382V59.883Zm0 18.033h-5.382v10.607h5.382V77.915Zm36.052-25.519a4.579 4.579 0 0 1 3.232 1.359 4.66 4.66 0 0 1 1.347 3.26V91.46a4.701 4.701 0 0 1-1.358 3.25 4.62 4.62 0 0 1-3.221 1.37H73.308a4.6 4.6 0 0 1-3.226-1.365 4.68 4.68 0 0 1-1.353-3.255V57.016c0-1.226.482-2.4 1.341-3.267a4.56 4.56 0 0 1 3.238-1.353h11.147Zm-2.912 7.487H76.17v28.64h5.383l-.01-28.64Zm33.651 36.187-3.012-18.155h-2.842V96.07h-7.422V52.397h15.707a4.513 4.513 0 0 1 3.207 1.366c.42.429.752.937.977 1.495.225.558.338 1.156.335 1.759v16.35a4.556 4.556 0 0 1-.72 2.45 4.494 4.494 0 0 1-1.922 1.664l3.093 18.59h-7.401Zm-.492-36.187h-5.382v10.546h5.382V59.883Zm35.068-7.487a4.579 4.579 0 0 1 3.232 1.359 4.658 4.658 0 0 1 1.347 3.26V91.46a4.7 4.7 0 0 1-1.359 3.25 4.619 4.619 0 0 1-3.22 1.37h-11.127a4.602 4.602 0 0 1-3.227-1.365 4.68 4.68 0 0 1-1.352-3.255V57.016a4.64 4.64 0 0 1 1.32-3.246 4.558 4.558 0 0 1 3.199-1.374h11.187Zm-2.913 7.487h-5.382v28.64h5.382v-28.64Zm36.062-7.487a4.577 4.577 0 0 1 3.232 1.359 4.658 4.658 0 0 1 1.347 3.26V91.46a4.7 4.7 0 0 1-1.358 3.25 4.621 4.621 0 0 1-3.221 1.37h-15.706V52.396h15.706Zm-2.902 7.487h-5.383v28.64h5.383v-28.64Zm20.717-7.487h7.421V96.07h-7.421V52.396Zm40.45 0V96.07h-7.421l-5.443-19.077V96.07h-7.391V52.396h7.361l5.443 17.901V52.396h7.451Zm28.57 18.033a4.577 4.577 0 0 1 3.232 1.359 4.658 4.658 0 0 1 1.347 3.26V91.46a4.7 4.7 0 0 1-1.358 3.25 4.62 4.62 0 0 1-3.221 1.37h-11.127a4.6 4.6 0 0 1-3.213-1.372 4.685 4.685 0 0 1-1.346-3.248v-8.986l7.421-1.742v7.8h5.383V77.915h-8.225a4.534 4.534 0 0 1-3.233-1.343 4.603 4.603 0 0 1-.994-1.493 4.655 4.655 0 0 1-.352-1.763v-16.3c0-1.222.48-2.394 1.334-3.26a4.56 4.56 0 0 1 3.225-1.36h11.147a4.577 4.577 0 0 1 3.232 1.359 4.663 4.663 0 0 1 1.348 3.26v8.835l-7.482 1.752v-7.72h-5.383V70.43h8.265Zm31.734 3.748 6.929 21.903h-7.482l-.06-.254-5.563-17.9h-.683V96.07h-7.421V52.396h7.421v18.033h.612l5.694-18.033h7.542l-6.989 21.781Zm19.08-21.781h7.421V96.07h-7.421V52.396Z"/></svg>