<svg xmlns="http://www.w3.org/2000/svg" xmlns:xlink="http://www.w3.org/1999/xlink" viewBox="0 0 429.23 550">
  <defs>
    <style>
      .cls-1 {
        fill: #555;
      }

      .cls-2 {
        fill: #717171;
      }

      .cls-3 {
        opacity: .2;
      }

      .cls-3, .cls-4 {
        mix-blend-mode: multiply;
      }

      .cls-5 {
        fill: url(#_Íîâûé_îáðàçåö_ãðàäèåíòà_1);
      }

      .cls-6 {
        isolation: isolate;
      }

      .cls-7 {
        fill: #393939;
      }

      .cls-8 {
        fill: #1c1c1c;
      }

      .cls-9 {
        fill: #8e8e8e;
      }

      .cls-4 {
        opacity: .5;
      }

      .cls-10 {
        fill: #aaa;
      }

      .cls-11 {
        fill: url(#linear-gradient);
      }

      .cls-12 {
        fill: #c6c6c6;
      }

      .cls-13 {
        fill: #e3e3e3;
      }
    </style>
    <linearGradient id="_Íîâûé_îáðàçåö_ãðàäèåíòà_1" data-name="Íîâûé îáðàçåö ãðàäèåíòà 1" x1="215.3" y1="4.22" x2="211.96" y2="541.66" gradientUnits="userSpaceOnUse">
      <stop offset="0" stop-color="#eceaeb"/>
      <stop offset="1" stop-color="#eceaeb"/>
    </linearGradient>
    <linearGradient id="linear-gradient" x1="296.38" y1="485.33" x2="311.24" y2="528.07" gradientUnits="userSpaceOnUse">
      <stop offset="0" stop-color="#eeeced"/>
      <stop offset=".21" stop-color="#f1f0f0"/>
      <stop offset=".42" stop-color="#fcfcfc"/>
      <stop offset=".45" stop-color="#fff"/>
      <stop offset=".48" stop-color="#fdfdfd"/>
      <stop offset=".74" stop-color="#f1f0f1"/>
      <stop offset=".98" stop-color="#eeeced"/>
    </linearGradient>
  </defs>
  <g class="cls-6">
    <g id="_Layer_" data-name="&amp;lt;Layer&amp;gt;">
      <g>
        <g class="cls-4">
          <path class="cls-13" d="m11.83,12.15h419.13v465.4c-10.35,23.74-63.49,42.34-123.19,55.39-58.63,12.84-115.9,18.81-116.58,18.89H11.83V12.15Z"/>
          <path class="cls-12" d="m13.22,13.55h416.34v463.67c-9.76,21.92-59.08,40.65-122.68,54.49-57.91,12.65-114.4,18.58-115.78,18.73H13.22V13.55Z"/>
          <path class="cls-10" d="m14.62,14.94h413.55v461.94c-9.16,20.11-54.67,38.95-122.16,53.58-57.19,12.45-112.9,18.35-114.97,18.57H14.62V14.94Z"/>
          <path class="cls-9" d="m16.01,16.34h410.76v460.21c-8.56,18.29-50.26,37.26-121.65,52.68-56.47,12.25-111.4,18.11-114.16,18.41H16.01V16.34Z"/>
          <path class="cls-2" d="m17.41,17.73h407.97v458.49c-7.96,16.47-45.85,35.57-121.14,51.77-55.75,12.06-109.91,17.88-113.35,18.25H17.41V17.73Z"/>
          <path class="cls-1" d="m18.8,19.13h405.18v456.76c-7.36,14.66-41.43,33.87-120.62,50.87-55.04,11.86-108.41,17.65-112.54,18.09H18.8V19.13Z"/>
          <path class="cls-7" d="m20.2,20.52h402.38v455.03c-6.77,12.84-37.02,32.18-120.11,49.97-54.32,11.66-106.91,17.42-111.74,17.94H20.2V20.52Z"/>
          <path class="cls-8" d="m21.59,21.92h399.59v453.3c-6.17,11.02-32.61,30.48-119.6,49.06-53.6,11.47-105.41,17.18-110.93,17.78H21.59V21.92Z"/>
          <path d="m22.99,540.66V23.31h396.8v451.58c-5.57,9.21-28.2,28.79-119.08,48.16-52.88,11.27-103.92,16.95-110.12,17.62H22.99Z"/>
        </g>
        <path class="cls-5" d="m2.9,3.22v542.47h180.82s180.82,0,241.1-75.34V3.22H2.9Z"/>
        <path class="cls-11" d="m183.72,545.69c135.62-15.07,143.15-67.81,143.15-67.81,82.88,15.07,97.95-7.53,97.95-7.53-60.27,75.34-241.1,75.34-241.1,75.34Z"/>
      </g>
    </g>
  </g>
</svg>