<svg width="19" height="19" xmlns="http://www.w3.org/2000/svg"><path d="M18.75 2.279a.705.705 0 0 1 0 1.013l-5.63 5.754a.706.706 0 0 0 0 1.013l5.666 5.681a.704.704 0 0 1 0 1.014l-2.057 2.044a.757.757 0 0 1-1.029 0l-5.703-5.663a.722.722 0 0 0-1.029 0L3.301 18.78a.757.757 0 0 1-1.028 0L.215 16.754a.725.725 0 0 1 0-1.032l5.685-5.7a.724.724 0 0 0 0-1.03L.215 3.31a.724.724 0 0 1 0-1.031L2.291.216a.722.722 0 0 1 1.029 0l5.702 5.681a.757.757 0 0 0 1.03 0L15.663.234a.722.722 0 0 1 1.029 0l2.057 2.045Z" fill="#D0D0D0"/></svg>