<svg width="13" height="15" fill="none" xmlns="http://www.w3.org/2000/svg"><path d="M10.83 6.56V3.75c0-.995-.457-1.948-1.269-2.652C8.75.395 7.648 0 6.5 0S4.25.395 3.439 1.098C2.627 1.802 2.17 2.755 2.17 3.75v2.81c-.576 0-1.128.198-1.535.55C.229 7.464 0 7.942 0 8.44v4.69c0 .496.227.972.632 1.322.405.351.954.548 1.527.548h8.67c.576 0 1.128-.198 1.535-.55.407-.353.636-.831.636-1.33V8.44c-.006-.496-.237-.97-.643-1.32a2.364 2.364 0 0 0-1.527-.55v-.01Zm-3.753 4.55v1.55a.44.44 0 0 1-.159.332.588.588 0 0 1-.383.138.588.588 0 0 1-.384-.138.44.44 0 0 1-.159-.332v-1.55a.989.989 0 0 1-.397-.33.81.81 0 0 1-.146-.46.82.82 0 0 1 .034-.37.902.902 0 0 1 .196-.33c.09-.098.202-.18.328-.239a1.245 1.245 0 0 1 .836-.074c.139.037.267.097.378.177a.98.98 0 0 1 .269.29c.066.11.107.231.118.356a.53.53 0 0 1 0 .19.81.81 0 0 1-.146.46.989.989 0 0 1-.396.33h.011ZM8.66 6.56H4.341V3.75c.04-.474.285-.917.687-1.24.402-.323.93-.503 1.478-.503.548 0 1.076.18 1.478.503.401.323.647.766.687 1.24v2.81h-.012Z" fill="#000"/></svg>