<svg width="14" height="14" fill="none" xmlns="http://www.w3.org/2000/svg"><g opacity=".3" fill="#fff"><path d="m6.325 8.088-.082.081L4.79 9.65a1.266 1.266 0 0 0-.363.943 1.199 1.199 0 0 0 .672 1.007c.192.092.404.132.616.114.305-.02.592-.155.803-.378l1.88-1.9 1.79-1.756a1.168 1.168 0 0 0 .102-1.48c-.143-.174-.296-.327-.448-.49L6.355 2.246A1.137 1.137 0 0 0 5.34 1.96a1.097 1.097 0 0 0-.712.418c-.165.191-.261.432-.274.684a1.21 1.21 0 0 0 .396 1.022l1.606 1.613H1.04c-.29.05-.554.201-.742.429a1.196 1.196 0 0 0-.274 1.021c.059.25.198.472.396.633.216.198.5.305.793.296h5.082l.03.01Zm5.286-1.083v4.013a.605.605 0 0 1-.265.51.679.679 0 0 1-.416.113H9.639a1.22 1.22 0 0 0-.671.429 1.197 1.197 0 0 0 .203 1.685c.199.16.447.247.701.245h1.668c.258-.041.509-.124.742-.245.228-.114.44-.259.63-.429.294-.244.539-.542.721-.878a2.89 2.89 0 0 0 .356-1.45V2.645a2.652 2.652 0 0 0-.264-.92A3.111 3.111 0 0 0 12.84.634 2.91 2.91 0 0 0 11.03 0H9.69a1.208 1.208 0 0 0-.66.378 1.167 1.167 0 0 0-.132 1.43 1.161 1.161 0 0 0 1.016.571h1.2a.639.639 0 0 1 .559.572v4.023l-.061.031Z"/><path d="M6.325 8.088H1.242A1.125 1.125 0 0 1 .45 7.79a1.164 1.164 0 0 1-.426-.643 1.2 1.2 0 0 1 .274-1.021 1.24 1.24 0 0 1 .742-.45h5.316l-.081-.081-1.525-1.511a1.205 1.205 0 0 1-.396-1.022c.013-.252.11-.493.274-.684.174-.227.43-.377.712-.418a1.134 1.134 0 0 1 1.016.286l3.446 3.43c.153.154.305.317.447.49a1.168 1.168 0 0 1-.101 1.481L8.398 9.435l-1.87 1.9a1.217 1.217 0 0 1-.803.378 1.184 1.184 0 0 1-1.088-.525 1.199 1.199 0 0 1-.07-1.211c.06-.121.138-.231.233-.327l1.454-1.48.081-.072-.01-.01Z"/><path d="M11.61 7.005V2.982a.645.645 0 0 0-.518-.582h-1.2a1.155 1.155 0 0 1-1.016-.572 1.158 1.158 0 0 1-.183-.684c.02-.293.15-.568.366-.766.174-.194.406-.327.66-.378h1.343a2.91 2.91 0 0 1 1.81.633c.359.272.654.621.863 1.021.143.288.233.6.264.92v8.373a2.89 2.89 0 0 1-.355 1.45 3 3 0 0 1-.722.878c-.19.17-.402.315-.63.429a2.44 2.44 0 0 1-.742.245H9.883a1.104 1.104 0 0 1-.712-.204 1.186 1.186 0 0 1-.213-1.634c.17-.214.405-.365.67-.429h1.291a.679.679 0 0 0 .417-.112.602.602 0 0 0 .264-.51V6.973l.01.031Z"/></g></svg>