<svg width="13" height="13" fill="none" xmlns="http://www.w3.org/2000/svg"><path d="M12.79 11.142a2.753 2.753 0 0 0-.942-1.432 11.457 11.457 0 0 0-2.924-1.327 4.272 4.272 0 0 1-.704-.265.917.917 0 0 1-.314-.6v-.416A8.145 8.145 0 0 0 9.065 2.9a2.642 2.642 0 0 0-.028-.973c-.07-.32-.198-.62-.377-.887a2.395 2.395 0 0 0-.667-.664 2.24 2.24 0 0 0-.856-.339 2.256 2.256 0 0 0-.639 0 2.187 2.187 0 0 0-.92.023c-.303.074-.589.21-.841.403a2.427 2.427 0 0 0-.628.718c-.163.282-.27.595-.318.922a3.272 3.272 0 0 0 0 .797 8.02 8.02 0 0 0 1.332 4.305v.242a.907.907 0 0 1-.099.335.852.852 0 0 1-.215.265c-.224.132-.46.24-.704.324a12.16 12.16 0 0 0-2.923 1.304 2.84 2.84 0 0 0-.942 1.466A6.286 6.286 0 0 0 .002 13h12.993a6.295 6.295 0 0 0-.205-1.858Z" fill="#000"/></svg>