<svg xmlns="http://www.w3.org/2000/svg" width="512" height="512">
  <path fill="#1E1E1E" d="M0 0h512v512H0z"/>
  <path fill="#fff" d="M207.53 204h4.95c19.05 1 34 6.12 43.46 16.7 9.62-10.61 24.56-15.78 43.71-16.7h4.74c42.48 2.9 61.85 33.62 95.77 46.68a38.89 38.89 0 0 0 16.8 3.54c8.7-.96 14.25-9.84 13.13-19.75-1.2-10.62-11.5-19.85-23.02-14.76a15.5 15.5 0 0 0-4.1 2.83c-.88.82-1.86 2.94-4.1 2.16-2.11-1.77 0-4.35 1.08-5.84a21.11 21.11 0 0 1 9.02-8.62c3.8-1.9 8.08-2.6 12.28-2 19.75 1.42 37.43 18.9 34.41 45.38-6.73 39.39-42.45 50-84.79 53.54h-13.79a168.66 168.66 0 0 1-100.93-38.93 171.03 171.03 0 0 1-101.38 38.93h-13.54c-42.66-3.78-78.73-14.15-85-54.71-2.4-28.88 14.66-43.07 34.44-44.52a21.29 21.29 0 0 1 21.54 10.62c.99 1.62 2.81 4.14 1.1 6.08-2.15.4-3.2-1.3-4.11-2.16a14.04 14.04 0 0 0-9.9-4.35c-13.54-.5-21.33 14.69-15.92 26.93a15.33 15.33 0 0 0 11.82 8.92 40.37 40.37 0 0 0 16.8-3.54 83.68 83.68 0 0 0 13.58-6.72c25.79-15.08 45.96-36.49 81.95-39.71Z"/>
</svg>
